<mxfile host="app.diagrams.net" modified="2024-05-11T05:02:56.415Z" agent="Mozilla/5.0 (Windows NT 10.0; Win64; x64) AppleWebKit/537.36 (KHTML, like Gecko) Chrome/124.0.0.0 Safari/537.36" etag="nMWNserdPejJBeyA8QfR" version="24.3.1" type="device">
  <diagram name="Page-1" id="X4u_gW3xqv8gl_tVcJTS">
    <mxGraphModel dx="860" dy="449" grid="1" gridSize="10" guides="1" tooltips="1" connect="1" arrows="1" fold="1" page="1" pageScale="1" pageWidth="850" pageHeight="1100" math="0" shadow="0">
      <root>
        <mxCell id="0" />
        <mxCell id="1" parent="0" />
        <mxCell id="zeKYkU45g03teeaVTfIm-1" value="" style="shape=umlLifeline;perimeter=lifelinePerimeter;whiteSpace=wrap;html=1;container=1;dropTarget=0;collapsible=0;recursiveResize=0;outlineConnect=0;portConstraint=eastwest;newEdgeStyle={&quot;curved&quot;:0,&quot;rounded&quot;:0};participant=umlActor;" parent="1" vertex="1">
          <mxGeometry x="70" y="40" width="20" height="420" as="geometry" />
        </mxCell>
        <mxCell id="zeKYkU45g03teeaVTfIm-5" value="" style="html=1;points=[[0,0,0,0,5],[0,1,0,0,-5],[1,0,0,0,5],[1,1,0,0,-5]];perimeter=orthogonalPerimeter;outlineConnect=0;targetShapes=umlLifeline;portConstraint=eastwest;newEdgeStyle={&quot;curved&quot;:0,&quot;rounded&quot;:0};" parent="zeKYkU45g03teeaVTfIm-1" vertex="1">
          <mxGeometry x="5" y="60" width="10" height="330" as="geometry" />
        </mxCell>
        <mxCell id="zeKYkU45g03teeaVTfIm-2" value=":Ad hoc network" style="shape=umlLifeline;perimeter=lifelinePerimeter;whiteSpace=wrap;html=1;container=1;dropTarget=0;collapsible=0;recursiveResize=0;outlineConnect=0;portConstraint=eastwest;newEdgeStyle={&quot;curved&quot;:0,&quot;rounded&quot;:0};" parent="1" vertex="1">
          <mxGeometry x="350" y="40" width="100" height="420" as="geometry" />
        </mxCell>
        <mxCell id="zeKYkU45g03teeaVTfIm-6" value="" style="html=1;points=[[0,0,0,0,5],[0,1,0,0,-5],[1,0,0,0,5],[1,1,0,0,-5]];perimeter=orthogonalPerimeter;outlineConnect=0;targetShapes=umlLifeline;portConstraint=eastwest;newEdgeStyle={&quot;curved&quot;:0,&quot;rounded&quot;:0};" parent="zeKYkU45g03teeaVTfIm-2" vertex="1">
          <mxGeometry x="45" y="60" width="10" height="90" as="geometry" />
        </mxCell>
        <mxCell id="zeKYkU45g03teeaVTfIm-3" value=":Python server" style="shape=umlLifeline;perimeter=lifelinePerimeter;whiteSpace=wrap;html=1;container=1;dropTarget=0;collapsible=0;recursiveResize=0;outlineConnect=0;portConstraint=eastwest;newEdgeStyle={&quot;curved&quot;:0,&quot;rounded&quot;:0};" parent="1" vertex="1">
          <mxGeometry x="520" y="40" width="100" height="420" as="geometry" />
        </mxCell>
        <mxCell id="zeKYkU45g03teeaVTfIm-12" value="" style="html=1;points=[[0,0,0,0,5],[0,1,0,0,-5],[1,0,0,0,5],[1,1,0,0,-5]];perimeter=orthogonalPerimeter;outlineConnect=0;targetShapes=umlLifeline;portConstraint=eastwest;newEdgeStyle={&quot;curved&quot;:0,&quot;rounded&quot;:0};" parent="zeKYkU45g03teeaVTfIm-3" vertex="1">
          <mxGeometry x="45" y="180" width="10" height="170" as="geometry" />
        </mxCell>
        <mxCell id="zeKYkU45g03teeaVTfIm-15" value="" style="html=1;points=[[0,0,0,0,5],[0,1,0,0,-5],[1,0,0,0,5],[1,1,0,0,-5]];perimeter=orthogonalPerimeter;outlineConnect=0;targetShapes=umlLifeline;portConstraint=eastwest;newEdgeStyle={&quot;curved&quot;:0,&quot;rounded&quot;:0};" parent="zeKYkU45g03teeaVTfIm-3" vertex="1">
          <mxGeometry x="50" y="254" width="10" height="40" as="geometry" />
        </mxCell>
        <mxCell id="zeKYkU45g03teeaVTfIm-16" value="Store username,&lt;div&gt;IP and MAC in&lt;/div&gt;&lt;div&gt;Python server&lt;/div&gt;" style="html=1;align=left;spacingLeft=2;endArrow=block;rounded=0;edgeStyle=orthogonalEdgeStyle;curved=0;rounded=0;" parent="zeKYkU45g03teeaVTfIm-3" target="zeKYkU45g03teeaVTfIm-15" edge="1">
          <mxGeometry relative="1" as="geometry">
            <mxPoint x="55" y="234" as="sourcePoint" />
            <Array as="points">
              <mxPoint x="85" y="264" />
            </Array>
          </mxGeometry>
        </mxCell>
        <mxCell id="zeKYkU45g03teeaVTfIm-4" value=":Android application" style="shape=umlLifeline;perimeter=lifelinePerimeter;whiteSpace=wrap;html=1;container=1;dropTarget=0;collapsible=0;recursiveResize=0;outlineConnect=0;portConstraint=eastwest;newEdgeStyle={&quot;curved&quot;:0,&quot;rounded&quot;:0};" parent="1" vertex="1">
          <mxGeometry x="190" y="40" width="100" height="420" as="geometry" />
        </mxCell>
        <mxCell id="zeKYkU45g03teeaVTfIm-9" value="" style="html=1;points=[[0,0,0,0,5],[0,1,0,0,-5],[1,0,0,0,5],[1,1,0,0,-5]];perimeter=orthogonalPerimeter;outlineConnect=0;targetShapes=umlLifeline;portConstraint=eastwest;newEdgeStyle={&quot;curved&quot;:0,&quot;rounded&quot;:0};" parent="zeKYkU45g03teeaVTfIm-4" vertex="1">
          <mxGeometry x="45" y="160" width="10" height="230" as="geometry" />
        </mxCell>
        <mxCell id="zeKYkU45g03teeaVTfIm-7" value="Connect to ad hoc network" style="html=1;verticalAlign=bottom;endArrow=block;curved=0;rounded=0;" parent="1" edge="1">
          <mxGeometry width="80" relative="1" as="geometry">
            <mxPoint x="84.99999999999989" y="120" as="sourcePoint" />
            <mxPoint x="395" y="120" as="targetPoint" />
          </mxGeometry>
        </mxCell>
        <mxCell id="zeKYkU45g03teeaVTfIm-8" value="Connected" style="html=1;verticalAlign=bottom;endArrow=open;dashed=1;endSize=8;curved=0;rounded=0;" parent="1" edge="1">
          <mxGeometry relative="1" as="geometry">
            <mxPoint x="395" y="170" as="sourcePoint" />
            <mxPoint x="84.99999999999989" y="170" as="targetPoint" />
          </mxGeometry>
        </mxCell>
        <mxCell id="zeKYkU45g03teeaVTfIm-10" value="Authenticate network" style="html=1;verticalAlign=bottom;endArrow=block;curved=0;rounded=0;" parent="1" edge="1">
          <mxGeometry width="80" relative="1" as="geometry">
            <mxPoint x="84.99999999999989" y="220" as="sourcePoint" />
            <mxPoint x="234.9999999999999" y="220" as="targetPoint" />
          </mxGeometry>
        </mxCell>
        <mxCell id="zeKYkU45g03teeaVTfIm-11" value="Send acknowledgement with username, MAC and IP&amp;nbsp;" style="html=1;verticalAlign=bottom;endArrow=block;curved=0;rounded=0;" parent="1" edge="1">
          <mxGeometry width="80" relative="1" as="geometry">
            <mxPoint x="244.9999999999999" y="240" as="sourcePoint" />
            <mxPoint x="565" y="240" as="targetPoint" />
          </mxGeometry>
        </mxCell>
        <mxCell id="zeKYkU45g03teeaVTfIm-14" value="Send acknowledgement" style="html=1;verticalAlign=bottom;endArrow=open;dashed=1;endSize=8;curved=0;rounded=0;" parent="1" edge="1">
          <mxGeometry relative="1" as="geometry">
            <mxPoint x="565" y="370" as="sourcePoint" />
            <mxPoint x="244.9999999999999" y="370" as="targetPoint" />
          </mxGeometry>
        </mxCell>
        <mxCell id="zeKYkU45g03teeaVTfIm-17" value="network authenticated" style="html=1;verticalAlign=bottom;endArrow=open;dashed=1;endSize=8;curved=0;rounded=0;" parent="1" edge="1">
          <mxGeometry relative="1" as="geometry">
            <mxPoint x="233.9999999999999" y="409.0000000000001" as="sourcePoint" />
            <mxPoint x="83.99999999999989" y="409.0000000000001" as="targetPoint" />
          </mxGeometry>
        </mxCell>
      </root>
    </mxGraphModel>
  </diagram>
</mxfile>
